<?xml version="1.0" encoding="UTF-8" standalone="no"?>
<!DOCTYPE svg PUBLIC "-//W3C//DTD SVG 1.1//EN" "http://www.w3.org/Graphics/SVG/1.1/DTD/svg11.dtd">
<svg xmlns="http://www.w3.org/2000/svg" version="1.1" viewBox="0.00 0.00 897.00 300.00">
<g stroke-width="2.00" fill="none" stroke-linecap="butt">
<path stroke="#7f8388" vector-effect="non-scaling-stroke" d="
  M 98.43 29.37
  A 19.69 19.69 0.0 0 0 78.74 9.68
  A 19.69 19.69 0.0 0 0 59.05 29.37
  A 19.69 19.69 0.0 0 0 78.74 49.06
  A 19.69 19.69 0.0 0 0 98.43 29.37"
/>
<path stroke="#7f8388" vector-effect="non-scaling-stroke" d="
  M 456.40 65.39
  L 390.46 65.39
  A 1.82 1.82 0.0 0 1 388.64 63.57
  L 388.64 32.12
  A 2.20 2.20 0.0 0 0 387.36 30.12
  Q 378.37 25.98 368.95 23.14
  Q 361.58 20.91 355.07 18.24
  Q 351.42 16.74 346.39 16.29
  A 1.48 1.47 -89.0 0 0 344.79 17.84
  Q 345.79 37.90 345.32 63.91
  A 1.47 1.47 0.0 0 1 343.85 65.35
  L 321.58 65.35
  A 1.25 1.24 0.0 0 0 320.33 66.59
  L 320.33 104.32
  A 1.09 1.08 0.0 0 0 321.42 105.40
  L 344.13 105.40
  A 1.56 1.55 90.0 0 1 345.68 106.96
  Q 345.73 178.53 345.79 190.50
  Q 345.86 204.65 350.21 216.29
  C 355.40 230.18 366.39 237.47 379.96 241.85
  Q 381.56 242.37 385.48 242.84
  Q 404.11 245.04 423.81 243.63
  A 0.89 0.88 87.9 0 0 424.63 242.74
  L 424.63 207.11
  A 1.86 1.86 0.0 0 0 422.84 205.25
  Q 407.05 204.67 401.50 204.26
  Q 397.52 203.96 393.15 201.17
  C 389.69 198.96 388.61 194.92 388.61 191.00
  Q 388.61 144.84 388.65 106.94
  A 1.33 1.32 -89.6 0 1 389.98 105.62
  Q 424.47 105.71 443.25 105.57
  Q 449.54 105.52 456.03 105.09
  A 1.47 1.46 -1.8 0 1 457.59 106.55
  Q 457.57 138.16 457.59 169.95
  Q 457.61 187.84 457.89 191.03
  C 459.22 206.05 463.46 221.22 474.92 231.47
  Q 480.99 236.91 491.53 240.62
  Q 500.07 243.62 510.24 243.95
  Q 522.58 244.34 538.51 243.96
  A 1.32 1.32 0.0 0 0 539.80 242.64
  L 539.80 207.07
  A 1.89 1.89 0.0 0 0 537.92 205.18
  Q 528.77 205.12 520.50 204.78
  C 513.85 204.51 505.76 203.60 502.60 197.33
  Q 501.35 194.85 501.36 188.00
  Q 501.46 129.54 501.56 115.50
  Q 501.59 110.94 502.02 106.60
  A 1.07 1.07 0.0 0 1 503.08 105.64
  L 538.55 105.64
  A 1.15 1.14 5.1 0 0 539.68 104.70
  Q 540.00 102.91 540.04 101.00
  Q 540.40 83.72 539.99 67.00
  A 1.59 1.59 0.0 0 0 538.40 65.45
  L 503.32 65.45
  A 1.89 1.89 0.0 0 1 501.43 63.56
  L 501.43 31.74
  A 1.65 1.64 -83.7 0 0 500.15 30.13
  L 498.48 29.74
  A 6.90 6.76 63.0 0 1 497.05 29.26
  C 492.50 27.12 486.76 24.54 481.42 22.76
  C 471.83 19.55 465.44 16.97 458.94 15.76
  A 1.05 1.04 -84.7 0 0 457.71 16.79
  L 457.71 64.08
  A 1.31 1.31 0.0 0 1 456.40 65.39"
/>
<path stroke="#7f8388" vector-effect="non-scaling-stroke" d="
  M 680.90 81.77
  Q 677.65 78.99 673.38 75.39
  Q 663.41 67.00 649.53 64.17
  C 621.77 58.51 593.40 67.01 574.73 88.27
  C 561.65 103.16 554.70 123.64 553.97 142.98
  Q 553.30 160.49 554.18 172.52
  C 555.53 191.10 564.00 210.38 576.38 224.22
  C 594.75 244.75 622.23 251.00 648.86 244.25
  C 661.07 241.16 672.48 232.37 680.60 222.91
  A 0.65 0.65 0.0 0 1 681.70 223.09
  Q 681.99 223.80 682.06 224.76
  Q 682.59 232.47 681.73 242.08
  A 1.80 1.79 2.5 0 0 683.52 244.03
  L 723.29 244.03
  A 1.10 1.10 0.0 0 0 724.39 242.93
  L 724.39 66.71
  A 1.26 1.26 0.0 0 0 723.13 65.45
  L 682.68 65.45
  A 1.28 1.28 0.0 0 0 681.42 66.94
  Q 682.47 73.31 681.88 81.36
  A 0.59 0.59 0.0 0 1 680.90 81.77"
/>
<path stroke="#7f8388" vector-effect="non-scaling-stroke" d="
  M 195.16 167.38
  Q 195.53 167.17 196.25 167.19
  Q 217.27 167.52 306.27 167.18
  Q 310.02 167.16 312.45 166.96
  A 1.08 1.07 -2.8 0 0 313.44 165.87
  Q 313.37 161.73 313.35 146.51
  C 313.34 129.91 310.35 115.09 301.61 100.54
  C 293.40 86.88 281.69 75.65 267.10 69.18
  C 251.66 62.34 232.57 62.11 215.25 64.85
  Q 205.66 66.37 197.59 70.44
  C 184.21 77.18 175.68 84.71 167.45 96.30
  C 160.48 106.13 156.16 119.34 152.84 131.61
  C 150.32 140.92 150.08 149.71 150.60 159.74
  Q 151.62 179.71 159.33 197.53
  C 162.61 205.09 168.31 214.26 173.34 220.28
  C 192.80 243.60 225.07 250.31 253.97 244.02
  C 258.75 242.98 261.03 242.48 264.77 240.75
  C 271.01 237.86 277.18 234.39 282.43 229.86
  C 294.93 219.06 305.25 204.92 309.05 188.57
  A 1.31 1.30 -83.4 0 0 307.79 186.97
  L 263.07 186.97
  A 1.23 1.22 -83.4 0 0 261.88 187.92
  C 261.30 190.43 260.29 192.91 258.51 195.07
  C 250.89 204.31 241.50 207.31 229.48 206.85
  Q 210.81 206.14 201.67 189.85
  Q 196.10 179.91 194.63 168.38
  Q 194.54 167.73 195.16 167.38"
/>
<path stroke="#7f8388" vector-effect="non-scaling-stroke" d="
  M 811.06 93.16
  A 0.39 0.39 0.0 0 1 810.31 93.04
  L 809.26 66.28
  A 0.94 0.93 88.7 0 0 808.33 65.38
  L 766.96 65.38
  A 1.55 1.55 0.0 0 0 765.41 66.93
  L 765.41 242.65
  A 1.42 1.42 0.0 0 0 766.84 244.07
  Q 777.35 243.99 786.87 238.62
  Q 807.89 226.74 809.10 201.52
  C 809.94 183.99 808.91 169.80 810.09 156.82
  Q 810.93 147.46 811.20 144.96
  C 813.47 123.68 834.67 112.64 854.23 113.40
  A 1.27 1.27 0.0 0 0 855.55 112.13
  L 855.55 65.24
  A 1.30 1.29 -88.9 0 0 854.31 63.94
  C 844.68 63.51 837.34 66.57 829.25 71.55
  C 822.10 75.95 814.16 84.72 811.06 93.16"
/>
<path stroke="#7f8388" vector-effect="non-scaling-stroke" d="
  M 72.67 204.44
  C 77.03 196.67 83.89 187.77 88.47 180.55
  C 96.80 167.41 105.62 155.08 115.12 140.50
  Q 121.45 130.78 132.41 114.85
  C 134.69 111.54 136.57 107.96 138.36 105.17
  C 139.69 103.10 140.07 101.18 140.08 98.75
  Q 140.12 89.97 139.93 66.97
  A 1.53 1.52 89.6 0 0 138.41 65.46
  L 29.35 65.46
  A 2.03 2.02 -89.4 0 0 27.33 67.45
  Q 26.99 85.76 27.66 103.24
  Q 27.76 105.63 29.76 105.66
  Q 61.87 106.15 88.92 105.12
  A 0.88 0.87 -83.8 0 1 89.80 106.22
  Q 89.01 109.18 87.04 112.04
  Q 55.56 157.76 32.34 192.33
  Q 26.40 201.18 24.44 204.72
  Q 22.45 208.31 22.44 213.49
  Q 22.42 227.24 22.52 239.42
  C 22.54 242.04 22.06 243.96 25.26 243.98
  Q 81.29 244.33 139.05 243.98
  A 1.07 1.07 0.0 0 0 140.11 242.91
  L 140.11 206.99
  A 1.78 1.77 -89.7 0 0 138.36 205.21
  Q 114.14 204.92 87.25 205.20
  Q 80.53 205.26 73.54 205.80
  A 0.91 0.91 0.0 0 1 72.67 204.44"
/>
<path stroke="#7f8388" vector-effect="non-scaling-stroke" d="
  M 639.66 204.56
  C 653.25 204.00 665.88 198.20 673.39 186.63
  C 680.59 175.51 683.45 161.84 682.55 148.77
  Q 681.79 137.59 675.72 126.33
  Q 670.77 117.15 662.00 111.59
  Q 653.81 106.39 642.79 105.81
  Q 621.45 104.68 608.59 120.23
  C 598.50 132.41 596.20 145.68 597.36 160.94
  Q 598.61 177.24 609.13 190.50
  Q 614.51 197.29 622.72 201.24
  Q 630.40 204.95 639.66 204.56"
/>
<path stroke="#7f8388" vector-effect="non-scaling-stroke" d="
  M 196.65 139.23
  L 270.05 138.97
  A 0.43 0.43 0.0 0 0 270.47 138.54
  L 270.47 137.80
  A 36.41 35.55 89.8 0 0 234.79 101.51
  L 231.63 101.53
  A 36.41 35.55 89.8 0 0 196.21 138.06
  L 196.21 138.80
  A 0.43 0.43 0.0 0 0 196.65 139.23"
/>
</g>
<path fill="#fdfdfd" d="
  M 897.00 0.00
  L 897.00 300.00
  L 0.00 300.00
  L 0.00 0.00
  L 897.00 0.00
  Z
  M 98.43 29.37
  A 19.69 19.69 0.0 0 0 78.74 9.68
  A 19.69 19.69 0.0 0 0 59.05 29.37
  A 19.69 19.69 0.0 0 0 78.74 49.06
  A 19.69 19.69 0.0 0 0 98.43 29.37
  Z
  M 456.40 65.39
  L 390.46 65.39
  A 1.82 1.82 0.0 0 1 388.64 63.57
  L 388.64 32.12
  A 2.20 2.20 0.0 0 0 387.36 30.12
  Q 378.37 25.98 368.95 23.14
  Q 361.58 20.91 355.07 18.24
  Q 351.42 16.74 346.39 16.29
  A 1.48 1.47 -89.0 0 0 344.79 17.84
  Q 345.79 37.90 345.32 63.91
  A 1.47 1.47 0.0 0 1 343.85 65.35
  L 321.58 65.35
  A 1.25 1.24 0.0 0 0 320.33 66.59
  L 320.33 104.32
  A 1.09 1.08 0.0 0 0 321.42 105.40
  L 344.13 105.40
  A 1.56 1.55 90.0 0 1 345.68 106.96
  Q 345.73 178.53 345.79 190.50
  Q 345.86 204.65 350.21 216.29
  C 355.40 230.18 366.39 237.47 379.96 241.85
  Q 381.56 242.37 385.48 242.84
  Q 404.11 245.04 423.81 243.63
  A 0.89 0.88 87.9 0 0 424.63 242.74
  L 424.63 207.11
  A 1.86 1.86 0.0 0 0 422.84 205.25
  Q 407.05 204.67 401.50 204.26
  Q 397.52 203.96 393.15 201.17
  C 389.69 198.96 388.61 194.92 388.61 191.00
  Q 388.61 144.84 388.65 106.94
  A 1.33 1.32 -89.6 0 1 389.98 105.62
  Q 424.47 105.71 443.25 105.57
  Q 449.54 105.52 456.03 105.09
  A 1.47 1.46 -1.8 0 1 457.59 106.55
  Q 457.57 138.16 457.59 169.95
  Q 457.61 187.84 457.89 191.03
  C 459.22 206.05 463.46 221.22 474.92 231.47
  Q 480.99 236.91 491.53 240.62
  Q 500.07 243.62 510.24 243.95
  Q 522.58 244.34 538.51 243.96
  A 1.32 1.32 0.0 0 0 539.80 242.64
  L 539.80 207.07
  A 1.89 1.89 0.0 0 0 537.92 205.18
  Q 528.77 205.12 520.50 204.78
  C 513.85 204.51 505.76 203.60 502.60 197.33
  Q 501.35 194.85 501.36 188.00
  Q 501.46 129.54 501.56 115.50
  Q 501.59 110.94 502.02 106.60
  A 1.07 1.07 0.0 0 1 503.08 105.64
  L 538.55 105.64
  A 1.15 1.14 5.1 0 0 539.68 104.70
  Q 540.00 102.91 540.04 101.00
  Q 540.40 83.72 539.99 67.00
  A 1.59 1.59 0.0 0 0 538.40 65.45
  L 503.32 65.45
  A 1.89 1.89 0.0 0 1 501.43 63.56
  L 501.43 31.74
  A 1.65 1.64 -83.7 0 0 500.15 30.13
  L 498.48 29.74
  A 6.90 6.76 63.0 0 1 497.05 29.26
  C 492.50 27.12 486.76 24.54 481.42 22.76
  C 471.83 19.55 465.44 16.97 458.94 15.76
  A 1.05 1.04 -84.7 0 0 457.71 16.79
  L 457.71 64.08
  A 1.31 1.31 0.0 0 1 456.40 65.39
  Z
  M 680.90 81.77
  Q 677.65 78.99 673.38 75.39
  Q 663.41 67.00 649.53 64.17
  C 621.77 58.51 593.40 67.01 574.73 88.27
  C 561.65 103.16 554.70 123.64 553.97 142.98
  Q 553.30 160.49 554.18 172.52
  C 555.53 191.10 564.00 210.38 576.38 224.22
  C 594.75 244.75 622.23 251.00 648.86 244.25
  C 661.07 241.16 672.48 232.37 680.60 222.91
  A 0.65 0.65 0.0 0 1 681.70 223.09
  Q 681.99 223.80 682.06 224.76
  Q 682.59 232.47 681.73 242.08
  A 1.80 1.79 2.5 0 0 683.52 244.03
  L 723.29 244.03
  A 1.10 1.10 0.0 0 0 724.39 242.93
  L 724.39 66.71
  A 1.26 1.26 0.0 0 0 723.13 65.45
  L 682.68 65.45
  A 1.28 1.28 0.0 0 0 681.42 66.94
  Q 682.47 73.31 681.88 81.36
  A 0.59 0.59 0.0 0 1 680.90 81.77
  Z
  M 195.16 167.38
  Q 195.53 167.17 196.25 167.19
  Q 217.27 167.52 306.27 167.18
  Q 310.02 167.16 312.45 166.96
  A 1.08 1.07 -2.8 0 0 313.44 165.87
  Q 313.37 161.73 313.35 146.51
  C 313.34 129.91 310.35 115.09 301.61 100.54
  C 293.40 86.88 281.69 75.65 267.10 69.18
  C 251.66 62.34 232.57 62.11 215.25 64.85
  Q 205.66 66.37 197.59 70.44
  C 184.21 77.18 175.68 84.71 167.45 96.30
  C 160.48 106.13 156.16 119.34 152.84 131.61
  C 150.32 140.92 150.08 149.71 150.60 159.74
  Q 151.62 179.71 159.33 197.53
  C 162.61 205.09 168.31 214.26 173.34 220.28
  C 192.80 243.60 225.07 250.31 253.97 244.02
  C 258.75 242.98 261.03 242.48 264.77 240.75
  C 271.01 237.86 277.18 234.39 282.43 229.86
  C 294.93 219.06 305.25 204.92 309.05 188.57
  A 1.31 1.30 -83.4 0 0 307.79 186.97
  L 263.07 186.97
  A 1.23 1.22 -83.4 0 0 261.88 187.92
  C 261.30 190.43 260.29 192.91 258.51 195.07
  C 250.89 204.31 241.50 207.31 229.48 206.85
  Q 210.81 206.14 201.67 189.85
  Q 196.10 179.91 194.63 168.38
  Q 194.54 167.73 195.16 167.38
  Z
  M 811.06 93.16
  A 0.39 0.39 0.0 0 1 810.31 93.04
  L 809.26 66.28
  A 0.94 0.93 88.7 0 0 808.33 65.38
  L 766.96 65.38
  A 1.55 1.55 0.0 0 0 765.41 66.93
  L 765.41 242.65
  A 1.42 1.42 0.0 0 0 766.84 244.07
  Q 777.35 243.99 786.87 238.62
  Q 807.89 226.74 809.10 201.52
  C 809.94 183.99 808.91 169.80 810.09 156.82
  Q 810.93 147.46 811.20 144.96
  C 813.47 123.68 834.67 112.64 854.23 113.40
  A 1.27 1.27 0.0 0 0 855.55 112.13
  L 855.55 65.24
  A 1.30 1.29 -88.9 0 0 854.31 63.94
  C 844.68 63.51 837.34 66.57 829.25 71.55
  C 822.10 75.95 814.16 84.72 811.06 93.16
  Z
  M 72.67 204.44
  C 77.03 196.67 83.89 187.77 88.47 180.55
  C 96.80 167.41 105.62 155.08 115.12 140.50
  Q 121.45 130.78 132.41 114.85
  C 134.69 111.54 136.57 107.96 138.36 105.17
  C 139.69 103.10 140.07 101.18 140.08 98.75
  Q 140.12 89.97 139.93 66.97
  A 1.53 1.52 89.6 0 0 138.41 65.46
  L 29.35 65.46
  A 2.03 2.02 -89.4 0 0 27.33 67.45
  Q 26.99 85.76 27.66 103.24
  Q 27.76 105.63 29.76 105.66
  Q 61.87 106.15 88.92 105.12
  A 0.88 0.87 -83.8 0 1 89.80 106.22
  Q 89.01 109.18 87.04 112.04
  Q 55.56 157.76 32.34 192.33
  Q 26.40 201.18 24.44 204.72
  Q 22.45 208.31 22.44 213.49
  Q 22.42 227.24 22.52 239.42
  C 22.54 242.04 22.06 243.96 25.26 243.98
  Q 81.29 244.33 139.05 243.98
  A 1.07 1.07 0.0 0 0 140.11 242.91
  L 140.11 206.99
  A 1.78 1.77 -89.7 0 0 138.36 205.21
  Q 114.14 204.92 87.25 205.20
  Q 80.53 205.26 73.54 205.80
  A 0.91 0.91 0.0 0 1 72.67 204.44
  Z"
/>
<circle fill="#000813" cx="78.74" cy="29.37" r="19.69"/>
<path fill="#000813" d="
  M 456.40 65.39
  A 1.31 1.31 0.0 0 0 457.71 64.08
  L 457.71 16.79
  A 1.05 1.04 -84.7 0 1 458.94 15.76
  C 465.44 16.97 471.83 19.55 481.42 22.76
  C 486.76 24.54 492.50 27.12 497.05 29.26
  A 6.90 6.76 63.0 0 0 498.48 29.74
  L 500.15 30.13
  A 1.65 1.64 -83.7 0 1 501.43 31.74
  L 501.43 63.56
  A 1.89 1.89 0.0 0 0 503.32 65.45
  L 538.40 65.45
  A 1.59 1.59 0.0 0 1 539.99 67.00
  Q 540.40 83.72 540.04 101.00
  Q 540.00 102.91 539.68 104.70
  A 1.15 1.14 5.1 0 1 538.55 105.64
  L 503.08 105.64
  A 1.07 1.07 0.0 0 0 502.02 106.60
  Q 501.59 110.94 501.56 115.50
  Q 501.46 129.54 501.36 188.00
  Q 501.35 194.85 502.60 197.33
  C 505.76 203.60 513.85 204.51 520.50 204.78
  Q 528.77 205.12 537.92 205.18
  A 1.89 1.89 0.0 0 1 539.80 207.07
  L 539.80 242.64
  A 1.32 1.32 0.0 0 1 538.51 243.96
  Q 522.58 244.34 510.24 243.95
  Q 500.07 243.62 491.53 240.62
  Q 480.99 236.91 474.92 231.47
  C 463.46 221.22 459.22 206.05 457.89 191.03
  Q 457.61 187.84 457.59 169.95
  Q 457.57 138.16 457.59 106.55
  A 1.47 1.46 -1.8 0 0 456.03 105.09
  Q 449.54 105.52 443.25 105.57
  Q 424.47 105.71 389.98 105.62
  A 1.33 1.32 -89.6 0 0 388.65 106.94
  Q 388.61 144.84 388.61 191.00
  C 388.61 194.92 389.69 198.96 393.15 201.17
  Q 397.52 203.96 401.50 204.26
  Q 407.05 204.67 422.84 205.25
  A 1.86 1.86 0.0 0 1 424.63 207.11
  L 424.63 242.74
  A 0.89 0.88 87.9 0 1 423.81 243.63
  Q 404.11 245.04 385.48 242.84
  Q 381.56 242.37 379.96 241.85
  C 366.39 237.47 355.40 230.18 350.21 216.29
  Q 345.86 204.65 345.79 190.50
  Q 345.73 178.53 345.68 106.96
  A 1.56 1.55 -90.0 0 0 344.13 105.40
  L 321.42 105.40
  A 1.09 1.08 -0.0 0 1 320.33 104.32
  L 320.33 66.59
  A 1.25 1.24 -0.0 0 1 321.58 65.35
  L 343.85 65.35
  A 1.47 1.47 0.0 0 0 345.32 63.91
  Q 345.79 37.90 344.79 17.84
  A 1.48 1.47 -89.0 0 1 346.39 16.29
  Q 351.42 16.74 355.07 18.24
  Q 361.58 20.91 368.95 23.14
  Q 378.37 25.98 387.36 30.12
  A 2.20 2.20 0.0 0 1 388.64 32.12
  L 388.64 63.57
  A 1.82 1.82 0.0 0 0 390.46 65.39
  L 456.40 65.39
  Z"
/>
<path fill="#000813" d="
  M 680.90 81.77
  A 0.59 0.59 0.0 0 0 681.88 81.36
  Q 682.47 73.31 681.42 66.94
  A 1.28 1.28 0.0 0 1 682.68 65.45
  L 723.13 65.45
  A 1.26 1.26 0.0 0 1 724.39 66.71
  L 724.39 242.93
  A 1.10 1.10 0.0 0 1 723.29 244.03
  L 683.52 244.03
  A 1.80 1.79 2.5 0 1 681.73 242.08
  Q 682.59 232.47 682.06 224.76
  Q 681.99 223.80 681.70 223.09
  A 0.65 0.65 0.0 0 0 680.60 222.91
  C 672.48 232.37 661.07 241.16 648.86 244.25
  C 622.23 251.00 594.75 244.75 576.38 224.22
  C 564.00 210.38 555.53 191.10 554.18 172.52
  Q 553.30 160.49 553.97 142.98
  C 554.70 123.64 561.65 103.16 574.73 88.27
  C 593.40 67.01 621.77 58.51 649.53 64.17
  Q 663.41 67.00 673.38 75.39
  Q 677.65 78.99 680.90 81.77
  Z
  M 639.66 204.56
  C 653.25 204.00 665.88 198.20 673.39 186.63
  C 680.59 175.51 683.45 161.84 682.55 148.77
  Q 681.79 137.59 675.72 126.33
  Q 670.77 117.15 662.00 111.59
  Q 653.81 106.39 642.79 105.81
  Q 621.45 104.68 608.59 120.23
  C 598.50 132.41 596.20 145.68 597.36 160.94
  Q 598.61 177.24 609.13 190.50
  Q 614.51 197.29 622.72 201.24
  Q 630.40 204.95 639.66 204.56
  Z"
/>
<path fill="#000813" d="
  M 195.16 167.38
  Q 194.54 167.73 194.63 168.38
  Q 196.10 179.91 201.67 189.85
  Q 210.81 206.14 229.48 206.85
  C 241.50 207.31 250.89 204.31 258.51 195.07
  C 260.29 192.91 261.30 190.43 261.88 187.92
  A 1.23 1.22 -83.4 0 1 263.07 186.97
  L 307.79 186.97
  A 1.31 1.30 -83.4 0 1 309.05 188.57
  C 305.25 204.92 294.93 219.06 282.43 229.86
  C 277.18 234.39 271.01 237.86 264.77 240.75
  C 261.03 242.48 258.75 242.98 253.97 244.02
  C 225.07 250.31 192.80 243.60 173.34 220.28
  C 168.31 214.26 162.61 205.09 159.33 197.53
  Q 151.62 179.71 150.60 159.74
  C 150.08 149.71 150.32 140.92 152.84 131.61
  C 156.16 119.34 160.48 106.13 167.45 96.30
  C 175.68 84.71 184.21 77.18 197.59 70.44
  Q 205.66 66.37 215.25 64.85
  C 232.57 62.11 251.66 62.34 267.10 69.18
  C 281.69 75.65 293.40 86.88 301.61 100.54
  C 310.35 115.09 313.34 129.91 313.35 146.51
  Q 313.37 161.73 313.44 165.87
  A 1.08 1.07 -2.8 0 1 312.45 166.96
  Q 310.02 167.16 306.27 167.18
  Q 217.27 167.52 196.25 167.19
  Q 195.53 167.17 195.16 167.38
  Z
  M 196.65 139.23
  L 270.05 138.97
  A 0.43 0.43 0.0 0 0 270.47 138.54
  L 270.47 137.80
  A 36.41 35.55 89.8 0 0 234.79 101.51
  L 231.63 101.53
  A 36.41 35.55 89.8 0 0 196.21 138.06
  L 196.21 138.80
  A 0.43 0.43 0.0 0 0 196.65 139.23
  Z"
/>
<path fill="#000813" d="
  M 811.06 93.16
  C 814.16 84.72 822.10 75.95 829.25 71.55
  C 837.34 66.57 844.68 63.51 854.31 63.94
  A 1.30 1.29 -88.9 0 1 855.55 65.24
  L 855.55 112.13
  A 1.27 1.27 0.0 0 1 854.23 113.40
  C 834.67 112.64 813.47 123.68 811.20 144.96
  Q 810.93 147.46 810.09 156.82
  C 808.91 169.80 809.94 183.99 809.10 201.52
  Q 807.89 226.74 786.87 238.62
  Q 777.35 243.99 766.84 244.07
  A 1.42 1.42 0.0 0 1 765.41 242.65
  L 765.41 66.93
  A 1.55 1.55 0.0 0 1 766.96 65.38
  L 808.33 65.38
  A 0.94 0.93 88.7 0 1 809.26 66.28
  L 810.31 93.04
  A 0.39 0.39 0.0 0 0 811.06 93.16
  Z"
/>
<path fill="#000813" d="
  M 72.67 204.44
  A 0.91 0.91 0.0 0 0 73.54 205.80
  Q 80.53 205.26 87.25 205.20
  Q 114.14 204.92 138.36 205.21
  A 1.78 1.77 -89.7 0 1 140.11 206.99
  L 140.11 242.91
  A 1.07 1.07 0.0 0 1 139.05 243.98
  Q 81.29 244.33 25.26 243.98
  C 22.06 243.96 22.54 242.04 22.52 239.42
  Q 22.42 227.24 22.44 213.49
  Q 22.45 208.31 24.44 204.72
  Q 26.40 201.18 32.34 192.33
  Q 55.56 157.76 87.04 112.04
  Q 89.01 109.18 89.80 106.22
  A 0.88 0.87 -83.8 0 0 88.92 105.12
  Q 61.87 106.15 29.76 105.66
  Q 27.76 105.63 27.66 103.24
  Q 26.99 85.76 27.33 67.45
  A 2.03 2.02 -89.4 0 1 29.35 65.46
  L 138.41 65.46
  A 1.53 1.52 89.6 0 1 139.93 66.97
  Q 140.12 89.97 140.08 98.75
  C 140.07 101.18 139.69 103.10 138.36 105.17
  C 136.57 107.96 134.69 111.54 132.41 114.85
  Q 121.45 130.78 115.12 140.50
  C 105.62 155.08 96.80 167.41 88.47 180.55
  C 83.89 187.77 77.03 196.67 72.67 204.44
  Z"
/>
<path fill="#fdfdfd" d="
  M 196.65 139.23
  A 0.43 0.43 0.0 0 1 196.21 138.80
  L 196.21 138.06
  A 36.41 35.55 89.8 0 1 231.63 101.53
  L 234.79 101.51
  A 36.41 35.55 89.8 0 1 270.47 137.80
  L 270.47 138.54
  A 0.43 0.43 0.0 0 1 270.05 138.97
  L 196.65 139.23
  Z"
/>
<path fill="#fdfdfd" d="
  M 622.72 201.24
  Q 614.51 197.29 609.13 190.50
  Q 598.61 177.24 597.36 160.94
  C 596.20 145.68 598.50 132.41 608.59 120.23
  Q 621.45 104.68 642.79 105.81
  Q 653.81 106.39 662.00 111.59
  Q 670.77 117.15 675.72 126.33
  Q 681.79 137.59 682.55 148.77
  C 683.45 161.84 680.59 175.51 673.39 186.63
  C 665.88 198.20 653.25 204.00 639.66 204.56
  Q 630.40 204.95 622.72 201.24
  Z"
/>
</svg>
